<svg width="30" height="30" viewBox="0 0 30 30" fill="none" xmlns="http://www.w3.org/2000/svg">
<rect width="30" height="18" rx="2" fill="white"/>
<path d="M4 21C4 20.4477 4.44772 20 5 20H25C25.5523 20 26 20.4477 26 21V22C26 22.5523 25.5523 23 25 23H5C4.44772 23 4 22.5523 4 22V21Z" fill="#8D86C9"/>
<path d="M2 25.5C2 25.2239 2.22386 25 2.5 25H27.5C27.7761 25 28 25.2239 28 25.5V25.5C28 25.7761 27.7761 26 27.5 26H2.5C2.22386 26 2 25.7761 2 25.5V25.5Z" fill="black" fill-opacity="0.6"/>
<path d="M3 27.5C3 27.2239 3.22386 27 3.5 27H26.5C26.7761 27 27 27.2239 27 27.5V27.5C27 27.7761 26.7761 28 26.5 28H3.5C3.22386 28 3 27.7761 3 27.5V27.5Z" fill="black" fill-opacity="0.6"/>
<path d="M2 29.5C2 29.2239 2.22386 29 2.5 29H27.5C27.7761 29 28 29.2239 28 29.5V29.5C28 29.7761 27.7761 30 27.5 30H2.5C2.22386 30 2 29.7761 2 29.5V29.5Z" fill="black" fill-opacity="0.6"/>
</svg>
