<?xml version="1.0" encoding="UTF-8" standalone="no"?>
<!DOCTYPE svg PUBLIC "-//W3C//DTD SVG 1.1//EN" "http://www.w3.org/Graphics/SVG/1.1/DTD/svg11.dtd">
<svg width="100%" height="100%" viewBox="0 0 1000 1000" version="1.1" xmlns="http://www.w3.org/2000/svg" xmlns:xlink="http://www.w3.org/1999/xlink" xml:space="preserve" xmlns:serif="http://www.serif.com/" style="fill-rule:evenodd;clip-rule:evenodd;stroke-linejoin:round;stroke-miterlimit:2;">
    <path d="M996,150.641C996,69.708 930.292,4 849.359,4L150.641,4C69.708,4 4,69.708 4,150.641L4,849.359C4,930.292 69.708,996 150.641,996L849.359,996C930.292,996 996,930.292 996,849.359L996,150.641ZM132.721,640.563C132.721,588.284 140.509,538.959 156.085,492.589C171.661,446.218 192.608,403.429 218.927,364.22C245.245,325.011 275.681,289.83 310.235,258.678C344.789,227.525 380.955,201.118 418.731,179.454C456.508,157.791 494.822,141.14 533.673,129.503C572.524,117.866 609.495,112.047 644.586,112.047C675.738,112.047 705.369,115.628 733.478,122.789C761.586,129.951 786.651,140.872 808.673,155.553C830.694,170.234 849.046,188.764 863.727,211.144C878.408,233.523 888.255,259.752 893.268,289.83C893.626,291.62 893.805,293.232 893.805,294.664L893.805,299.498C893.805,313.463 889.776,324.116 881.72,331.456C873.663,338.797 864.98,342.467 855.67,342.467C845.286,342.467 835.618,336.917 826.666,325.816C817.714,314.716 809.12,298.961 800.885,278.551C787.636,253.486 768.479,235.224 743.414,223.766C718.349,212.307 690.061,206.578 658.551,206.578C630.979,206.578 602.065,211.591 571.808,221.617C541.55,231.643 511.651,245.787 482.11,264.049C452.569,282.311 424.371,304.243 397.516,329.845C370.66,355.447 347.027,383.735 326.617,414.708C306.207,445.681 290.004,479.072 278.009,514.879C266.013,550.686 260.016,587.747 260.016,626.061C260.016,657.929 263.954,684.785 271.832,706.627C279.71,728.469 290.094,746.194 302.984,759.801C315.875,773.408 330.377,783.255 346.49,789.342C362.604,795.429 378.896,798.473 395.367,798.473C432.249,798.473 467.429,788.447 500.909,768.395C534.389,748.342 563.84,719.607 589.264,682.188C614.687,644.77 634.918,599.116 649.957,545.226C664.996,491.336 672.516,430.553 672.516,362.877C672.516,356.074 672.426,349.36 672.247,342.735C672.068,336.111 671.979,329.218 671.979,322.057C671.979,304.153 675.201,290.994 681.646,282.579C688.092,274.164 695.432,269.957 703.668,269.957C717.633,269.957 729.002,273.806 737.774,281.505C746.547,289.203 753.44,299.409 758.453,312.12C763.466,324.832 766.957,339.334 768.927,355.626C770.896,371.918 771.881,388.658 771.881,405.846C771.881,454.544 766.689,500.466 756.305,543.614C745.921,586.762 731.508,626.687 713.067,663.39C694.627,700.092 672.784,733.035 647.54,762.218C622.296,791.401 594.993,816.108 565.631,836.339C536.269,856.57 505.385,872.146 472.979,883.067C440.574,893.989 407.9,899.449 374.957,899.449C344.521,899.449 314.801,895.063 285.797,886.29C256.793,877.517 230.922,863.015 208.185,842.784C185.447,822.553 167.185,795.877 153.399,762.755C139.614,729.633 132.721,688.902 132.721,640.563Z" style="fill:rgb(247,244,243);"/>
</svg>
