<svg width="30" height="32" viewBox="0 0 30 32" fill="none" xmlns="http://www.w3.org/2000/svg">
<rect width="30" height="32" rx="2" fill="white"/>
<path d="M4 24C4 23.4477 4.44772 23 5 23H25C25.5523 23 26 23.4477 26 24V28C26 28.5523 25.5523 29 25 29H5C4.44772 29 4 28.5523 4 28V24Z" fill="#8D86C9"/>
<path d="M23.0839 3.08392C23.1105 3.05732 23.142 3.03621 23.1767 3.02181C23.2114 3.00741 23.2486 3 23.2862 3C23.3237 3 23.3609 3.00741 23.3956 3.02181C23.4303 3.03621 23.4619 3.05732 23.4884 3.08392L25.0001 4.59616L26.5117 3.08392C26.5383 3.05736 26.5698 3.03629 26.6045 3.02192C26.6392 3.00755 26.6764 3.00015 26.714 3.00015C26.7515 3.00015 26.7887 3.00755 26.8234 3.02192C26.8581 3.03629 26.8897 3.05736 26.9162 3.08392C26.9428 3.11048 26.9639 3.14201 26.9782 3.17671C26.9926 3.21141 27 3.2486 27 3.28616C27 3.32372 26.9926 3.36091 26.9782 3.39562C26.9639 3.43032 26.9428 3.46185 26.9162 3.4884L25.404 5.00008L26.9162 6.51175C26.9428 6.5383 26.9639 6.56983 26.9782 6.60453C26.9926 6.63924 27 6.67643 27 6.71399C27 6.75155 26.9926 6.78874 26.9782 6.82344C26.9639 6.85814 26.9428 6.88967 26.9162 6.91623C26.8897 6.94279 26.8581 6.96386 26.8234 6.97823C26.7887 6.9926 26.7515 7 26.714 7C26.6764 7 26.6392 6.9926 26.6045 6.97823C26.5698 6.96386 26.5383 6.94279 26.5117 6.91623L25.0001 5.40399L23.4884 6.91623C23.4618 6.94279 23.4303 6.96386 23.3956 6.97823C23.3609 6.9926 23.3237 7 23.2862 7C23.2486 7 23.2114 6.9926 23.1767 6.97823C23.142 6.96386 23.1105 6.94279 23.0839 6.91623C23.0574 6.88967 23.0363 6.85814 23.0219 6.82344C23.0075 6.78874 23.0001 6.75155 23.0001 6.71399C23.0001 6.67643 23.0075 6.63924 23.0219 6.60453C23.0363 6.56983 23.0574 6.5383 23.0839 6.51175L24.5962 5.00008L23.0839 3.4884C23.0573 3.46187 23.0362 3.43035 23.0218 3.39564C23.0074 3.36094 23 3.32374 23 3.28616C23 3.24859 23.0074 3.21139 23.0218 3.17668C23.0362 3.14198 23.0573 3.11046 23.0839 3.08392Z" fill="black" fill-opacity="0.6"/>
</svg>
